<svg xmlns="http://www.w3.org/2000/svg" xmlns:xlink="http://www.w3.org/1999/xlink" width="224" zoomAndPan="magnify" viewBox="0 0 168 60" height="80" preserveAspectRatio="xMidYMid meet" version="1.0"><defs><g/></defs><g fill="#ffffff" fill-opacity="1"><g transform="translate(8.800233, 42.295774)"><g><path d="M 13.28125 -24.78125 C 14.65625 -24.78125 16.015625 -24.625 17.359375 -24.3125 C 18.710938 -24 19.71875 -23.6875 20.375 -23.375 L 21.359375 -22.90625 L 18.640625 -17.453125 C 16.753906 -18.460938 14.96875 -18.96875 13.28125 -18.96875 C 12.34375 -18.96875 11.675781 -18.863281 11.28125 -18.65625 C 10.894531 -18.457031 10.703125 -18.070312 10.703125 -17.5 C 10.703125 -17.375 10.71875 -17.25 10.75 -17.125 C 10.78125 -17 10.84375 -16.878906 10.9375 -16.765625 C 11.03125 -16.660156 11.113281 -16.566406 11.1875 -16.484375 C 11.269531 -16.410156 11.40625 -16.328125 11.59375 -16.234375 C 11.78125 -16.140625 11.925781 -16.066406 12.03125 -16.015625 C 12.144531 -15.972656 12.328125 -15.90625 12.578125 -15.8125 C 12.828125 -15.71875 13.015625 -15.644531 13.140625 -15.59375 C 13.265625 -15.550781 13.472656 -15.484375 13.765625 -15.390625 C 14.066406 -15.296875 14.296875 -15.234375 14.453125 -15.203125 C 15.421875 -14.921875 16.265625 -14.609375 16.984375 -14.265625 C 17.710938 -13.921875 18.472656 -13.453125 19.265625 -12.859375 C 20.066406 -12.265625 20.6875 -11.515625 21.125 -10.609375 C 21.5625 -9.703125 21.78125 -8.671875 21.78125 -7.515625 C 21.78125 -2.035156 17.976562 0.703125 10.375 0.703125 C 8.65625 0.703125 7.019531 0.4375 5.46875 -0.09375 C 3.914062 -0.625 2.796875 -1.15625 2.109375 -1.6875 L 1.078125 -2.53125 L 4.453125 -8.21875 C 4.703125 -8 5.03125 -7.738281 5.4375 -7.4375 C 5.851562 -7.144531 6.59375 -6.738281 7.65625 -6.21875 C 8.71875 -5.695312 9.640625 -5.4375 10.421875 -5.4375 C 12.140625 -5.4375 13 -6.019531 13 -7.1875 C 13 -7.71875 12.78125 -8.128906 12.34375 -8.421875 C 11.90625 -8.722656 11.160156 -9.0625 10.109375 -9.4375 C 9.066406 -9.8125 8.25 -10.15625 7.65625 -10.46875 C 6.144531 -11.25 4.953125 -12.128906 4.078125 -13.109375 C 3.203125 -14.097656 2.765625 -15.40625 2.765625 -17.03125 C 2.765625 -19.476562 3.710938 -21.378906 5.609375 -22.734375 C 7.503906 -24.097656 10.0625 -24.78125 13.28125 -24.78125 Z M 13.28125 -24.78125 "/></g></g></g><g fill="#ffffff" fill-opacity="1"><g transform="translate(28.793592, 42.295774)"><g><path d="M 3.609375 -37.5 C 4.578125 -38.46875 5.734375 -38.953125 7.078125 -38.953125 C 8.429688 -38.953125 9.59375 -38.46875 10.5625 -37.5 C 11.53125 -36.53125 12.015625 -35.375 12.015625 -34.03125 C 12.015625 -32.6875 11.53125 -31.523438 10.5625 -30.546875 C 9.59375 -29.578125 8.429688 -29.09375 7.078125 -29.09375 C 5.734375 -29.09375 4.578125 -29.578125 3.609375 -30.546875 C 2.640625 -31.523438 2.15625 -32.6875 2.15625 -34.03125 C 2.15625 -35.375 2.640625 -36.53125 3.609375 -37.5 Z M 2.8125 -24.078125 L 2.8125 0 L 11.125 0 L 11.125 -24.078125 Z M 2.8125 -24.078125 "/></g></g></g><g fill="#ffffff" fill-opacity="1"><g transform="translate(39.869556, 42.295774)"><g><path d="M 27.171875 -10.890625 L 9.71875 -10.890625 C 9.71875 -9.203125 10.265625 -7.953125 11.359375 -7.140625 C 12.453125 -6.328125 13.640625 -5.921875 14.921875 -5.921875 C 16.265625 -5.921875 17.328125 -6.097656 18.109375 -6.453125 C 18.898438 -6.816406 19.796875 -7.53125 20.796875 -8.59375 L 26.796875 -5.578125 C 24.296875 -1.390625 20.132812 0.703125 14.3125 0.703125 C 10.6875 0.703125 7.570312 -0.539062 4.96875 -3.03125 C 2.375 -5.519531 1.078125 -8.515625 1.078125 -12.015625 C 1.078125 -15.515625 2.375 -18.515625 4.96875 -21.015625 C 7.570312 -23.523438 10.6875 -24.78125 14.3125 -24.78125 C 18.132812 -24.78125 21.238281 -23.675781 23.625 -21.46875 C 26.019531 -19.269531 27.21875 -16.117188 27.21875 -12.015625 C 27.21875 -11.453125 27.203125 -11.078125 27.171875 -10.890625 Z M 9.953125 -15.484375 L 19.109375 -15.484375 C 18.921875 -16.734375 18.425781 -17.695312 17.625 -18.375 C 16.820312 -19.050781 15.796875 -19.390625 14.546875 -19.390625 C 13.171875 -19.390625 12.078125 -19.023438 11.265625 -18.296875 C 10.453125 -17.578125 10.015625 -16.640625 9.953125 -15.484375 Z M 9.953125 -15.484375 "/></g></g></g><g fill="#ffffff" fill-opacity="1"><g transform="translate(65.072541, 42.295774)"><g><path d="M 10.65625 -24.078125 L 10.65625 -12.625 C 10.65625 -10.25 11.015625 -8.5625 11.734375 -7.5625 C 12.453125 -6.5625 13.671875 -6.0625 15.390625 -6.0625 C 17.117188 -6.0625 18.34375 -6.5625 19.0625 -7.5625 C 19.78125 -8.5625 20.140625 -10.25 20.140625 -12.625 L 20.140625 -24.078125 L 28.4375 -24.078125 L 28.4375 -10.609375 C 28.4375 -6.597656 27.394531 -3.707031 25.3125 -1.9375 C 23.238281 -0.175781 19.929688 0.703125 15.390625 0.703125 C 10.859375 0.703125 7.550781 -0.175781 5.46875 -1.9375 C 3.382812 -3.707031 2.34375 -6.597656 2.34375 -10.609375 L 2.34375 -24.078125 Z M 10.65625 -24.078125 "/></g></g></g><g fill="#ffffff" fill-opacity="1"><g transform="translate(92.763013, 42.295774)"><g><path d="M 4.21875 -24.078125 L 4.21875 -33.046875 L 12.53125 -33.046875 L 12.53125 -24.078125 L 17.59375 -24.078125 L 17.59375 -17.75 L 12.53125 -17.75 L 12.53125 -10.09375 C 12.53125 -7.875 13.15625 -6.765625 14.40625 -6.765625 C 14.71875 -6.765625 15.046875 -6.828125 15.390625 -6.953125 C 15.734375 -7.078125 16 -7.203125 16.1875 -7.328125 L 16.46875 -7.515625 L 18.546875 -0.796875 C 16.753906 0.203125 14.71875 0.703125 12.4375 0.703125 C 10.875 0.703125 9.53125 0.429688 8.40625 -0.109375 C 7.28125 -0.660156 6.425781 -1.394531 5.84375 -2.3125 C 5.257812 -3.238281 4.84375 -4.210938 4.59375 -5.234375 C 4.34375 -6.253906 4.21875 -7.34375 4.21875 -8.5 L 4.21875 -17.75 L 0.75 -17.75 L 0.75 -24.078125 Z M 4.21875 -24.078125 "/></g></g></g><g fill="#ffffff" fill-opacity="1"><g transform="translate(108.203793, 42.295774)"><g><path d="M 5.09375 -2.859375 C 2.414062 -5.242188 1.078125 -8.296875 1.078125 -12.015625 C 1.078125 -15.734375 2.46875 -18.789062 5.25 -21.1875 C 8.039062 -23.582031 11.484375 -24.78125 15.578125 -24.78125 C 19.617188 -24.78125 23.023438 -23.570312 25.796875 -21.15625 C 28.566406 -18.75 29.953125 -15.703125 29.953125 -12.015625 C 29.953125 -8.328125 28.597656 -5.285156 25.890625 -2.890625 C 23.179688 -0.492188 19.742188 0.703125 15.578125 0.703125 C 11.265625 0.703125 7.769531 -0.484375 5.09375 -2.859375 Z M 11.515625 -16.09375 C 10.441406 -15.03125 9.90625 -13.671875 9.90625 -12.015625 C 9.90625 -10.359375 10.421875 -9.003906 11.453125 -7.953125 C 12.484375 -6.910156 13.84375 -6.390625 15.53125 -6.390625 C 17.164062 -6.390625 18.503906 -6.921875 19.546875 -7.984375 C 20.597656 -9.046875 21.125 -10.390625 21.125 -12.015625 C 21.125 -13.671875 20.582031 -15.03125 19.5 -16.09375 C 18.425781 -17.164062 17.101562 -17.703125 15.53125 -17.703125 C 13.9375 -17.703125 12.597656 -17.164062 11.515625 -16.09375 Z M 11.515625 -16.09375 "/></g></g></g><g fill="#ffffff" fill-opacity="1"><g transform="translate(136.128933, 42.295774)"><g><path d="M 15.625 -17.984375 C 14.0625 -17.984375 12.71875 -17.398438 11.59375 -16.234375 C 10.46875 -15.078125 9.90625 -13.6875 9.90625 -12.0625 C 9.90625 -10.40625 10.46875 -9 11.59375 -7.84375 C 12.71875 -6.6875 14.0625 -6.109375 15.625 -6.109375 C 16.375 -6.109375 17.085938 -6.203125 17.765625 -6.390625 C 18.441406 -6.578125 18.9375 -6.765625 19.25 -6.953125 L 19.671875 -7.234375 L 22.484375 -1.453125 C 22.265625 -1.296875 21.957031 -1.097656 21.5625 -0.859375 C 21.175781 -0.628906 20.285156 -0.3125 18.890625 0.09375 C 17.492188 0.5 16 0.703125 14.40625 0.703125 C 10.875 0.703125 7.769531 -0.539062 5.09375 -3.03125 C 2.414062 -5.519531 1.078125 -8.5 1.078125 -11.96875 C 1.078125 -15.46875 2.414062 -18.476562 5.09375 -21 C 7.769531 -23.519531 10.875 -24.78125 14.40625 -24.78125 C 16 -24.78125 17.46875 -24.59375 18.8125 -24.21875 C 20.164062 -23.84375 21.125 -23.46875 21.6875 -23.09375 L 22.484375 -22.53125 L 19.671875 -16.84375 C 18.640625 -17.601562 17.289062 -17.984375 15.625 -17.984375 Z M 15.625 -17.984375 "/></g></g></g></svg>