<svg xmlns="http://www.w3.org/2000/svg" xmlns:xlink="http://www.w3.org/1999/xlink" width="224" zoomAndPan="magnify" viewBox="0 0 168 60" height="80" preserveAspectRatio="xMidYMid meet" version="1.0"><defs><g/></defs><g fill="#000000" fill-opacity="1"><g transform="translate(3.024671, 43.69479)"><g><path d="M 14.3125 -26.6875 C 15.789062 -26.6875 17.253906 -26.515625 18.703125 -26.171875 C 20.148438 -25.835938 21.226562 -25.503906 21.9375 -25.171875 L 23 -24.671875 L 20.0625 -18.796875 C 18.039062 -19.878906 16.125 -20.421875 14.3125 -20.421875 C 13.289062 -20.421875 12.570312 -20.3125 12.15625 -20.09375 C 11.738281 -19.875 11.53125 -19.460938 11.53125 -18.859375 C 11.53125 -18.722656 11.546875 -18.585938 11.578125 -18.453125 C 11.609375 -18.316406 11.671875 -18.1875 11.765625 -18.0625 C 11.867188 -17.945312 11.960938 -17.847656 12.046875 -17.765625 C 12.140625 -17.679688 12.285156 -17.585938 12.484375 -17.484375 C 12.679688 -17.390625 12.835938 -17.316406 12.953125 -17.265625 C 13.078125 -17.210938 13.273438 -17.132812 13.546875 -17.03125 C 13.816406 -16.925781 14.019531 -16.847656 14.15625 -16.796875 C 14.289062 -16.753906 14.515625 -16.679688 14.828125 -16.578125 C 15.148438 -16.472656 15.394531 -16.40625 15.5625 -16.375 C 16.613281 -16.070312 17.523438 -15.734375 18.296875 -15.359375 C 19.066406 -14.992188 19.878906 -14.488281 20.734375 -13.84375 C 21.597656 -13.207031 22.265625 -12.398438 22.734375 -11.421875 C 23.210938 -10.441406 23.453125 -9.332031 23.453125 -8.09375 C 23.453125 -2.1875 19.359375 0.765625 11.171875 0.765625 C 9.316406 0.765625 7.554688 0.476562 5.890625 -0.09375 C 4.222656 -0.664062 3.019531 -1.238281 2.28125 -1.8125 L 1.15625 -2.734375 L 4.796875 -8.84375 C 5.066406 -8.601562 5.421875 -8.320312 5.859375 -8 C 6.296875 -7.6875 7.085938 -7.25 8.234375 -6.6875 C 9.378906 -6.132812 10.375 -5.859375 11.21875 -5.859375 C 13.070312 -5.859375 14 -6.484375 14 -7.734375 C 14 -8.304688 13.765625 -8.75 13.296875 -9.0625 C 12.828125 -9.382812 12.023438 -9.75 10.890625 -10.15625 C 9.765625 -10.5625 8.878906 -10.929688 8.234375 -11.265625 C 6.617188 -12.109375 5.335938 -13.0625 4.390625 -14.125 C 3.453125 -15.1875 2.984375 -16.59375 2.984375 -18.34375 C 2.984375 -20.976562 4 -23.023438 6.03125 -24.484375 C 8.070312 -25.953125 10.832031 -26.6875 14.3125 -26.6875 Z M 14.3125 -26.6875 "/></g></g></g><g fill="#000000" fill-opacity="1"><g transform="translate(24.555396, 43.69479)"><g><path d="M 3.890625 -40.375 C 4.929688 -41.425781 6.175781 -41.953125 7.625 -41.953125 C 9.082031 -41.953125 10.332031 -41.425781 11.375 -40.375 C 12.414062 -39.332031 12.9375 -38.085938 12.9375 -36.640625 C 12.9375 -35.191406 12.414062 -33.945312 11.375 -32.90625 C 10.332031 -31.863281 9.082031 -31.34375 7.625 -31.34375 C 6.175781 -31.34375 4.929688 -31.863281 3.890625 -32.90625 C 2.847656 -33.945312 2.328125 -35.191406 2.328125 -36.640625 C 2.328125 -38.085938 2.847656 -39.332031 3.890625 -40.375 Z M 3.03125 -25.9375 L 3.03125 0 L 11.984375 0 L 11.984375 -25.9375 Z M 3.03125 -25.9375 "/></g></g></g><g fill="#000000" fill-opacity="1"><g transform="translate(36.482949, 43.69479)"><g><path d="M 29.265625 -11.734375 L 10.46875 -11.734375 C 10.46875 -9.910156 11.054688 -8.5625 12.234375 -7.6875 C 13.410156 -6.8125 14.691406 -6.375 16.078125 -6.375 C 17.523438 -6.375 18.671875 -6.566406 19.515625 -6.953125 C 20.359375 -7.335938 21.316406 -8.101562 22.390625 -9.25 L 28.859375 -6.015625 C 26.160156 -1.492188 21.679688 0.765625 15.421875 0.765625 C 11.503906 0.765625 8.144531 -0.570312 5.34375 -3.25 C 2.550781 -5.9375 1.15625 -9.164062 1.15625 -12.9375 C 1.15625 -16.707031 2.550781 -19.941406 5.34375 -22.640625 C 8.144531 -25.335938 11.503906 -26.6875 15.421875 -26.6875 C 19.523438 -26.6875 22.863281 -25.5 25.4375 -23.125 C 28.019531 -20.75 29.3125 -17.351562 29.3125 -12.9375 C 29.3125 -12.332031 29.296875 -11.929688 29.265625 -11.734375 Z M 10.71875 -16.6875 L 20.578125 -16.6875 C 20.367188 -18.03125 19.832031 -19.0625 18.96875 -19.78125 C 18.113281 -20.507812 17.015625 -20.875 15.671875 -20.875 C 14.191406 -20.875 13.007812 -20.484375 12.125 -19.703125 C 11.25 -18.929688 10.78125 -17.925781 10.71875 -16.6875 Z M 10.71875 -16.6875 "/></g></g></g><g fill="#000000" fill-opacity="1"><g transform="translate(63.623945, 43.69479)"><g><path d="M 11.46875 -25.9375 L 11.46875 -13.59375 C 11.46875 -11.03125 11.851562 -9.207031 12.625 -8.125 C 13.40625 -7.050781 14.722656 -6.515625 16.578125 -6.515625 C 18.429688 -6.515625 19.742188 -7.050781 20.515625 -8.125 C 21.296875 -9.207031 21.6875 -11.03125 21.6875 -13.59375 L 21.6875 -25.9375 L 30.625 -25.9375 L 30.625 -11.421875 C 30.625 -7.109375 29.503906 -4 27.265625 -2.09375 C 25.023438 -0.1875 21.460938 0.765625 16.578125 0.765625 C 11.691406 0.765625 8.128906 -0.1875 5.890625 -2.09375 C 3.648438 -4 2.53125 -7.109375 2.53125 -11.421875 L 2.53125 -25.9375 Z M 11.46875 -25.9375 "/></g></g></g><g fill="#000000" fill-opacity="1"><g transform="translate(93.443716, 43.69479)"><g><path d="M 4.546875 -25.9375 L 4.546875 -35.578125 L 13.5 -35.578125 L 13.5 -25.9375 L 18.953125 -25.9375 L 18.953125 -19.109375 L 13.5 -19.109375 L 13.5 -10.875 C 13.5 -8.476562 14.171875 -7.28125 15.515625 -7.28125 C 15.847656 -7.28125 16.203125 -7.347656 16.578125 -7.484375 C 16.953125 -7.617188 17.238281 -7.753906 17.4375 -7.890625 L 17.734375 -8.09375 L 19.96875 -0.859375 C 18.039062 0.222656 15.847656 0.765625 13.390625 0.765625 C 11.710938 0.765625 10.265625 0.46875 9.046875 -0.125 C 7.835938 -0.71875 6.921875 -1.507812 6.296875 -2.5 C 5.671875 -3.5 5.222656 -4.546875 4.953125 -5.640625 C 4.679688 -6.734375 4.546875 -7.90625 4.546875 -9.15625 L 4.546875 -19.109375 L 0.8125 -19.109375 L 0.8125 -25.9375 Z M 4.546875 -25.9375 "/></g></g></g><g fill="#000000" fill-opacity="1"><g transform="translate(110.071764, 43.69479)"><g><path d="M 5.484375 -3.078125 C 2.597656 -5.640625 1.15625 -8.925781 1.15625 -12.9375 C 1.15625 -16.945312 2.65625 -20.238281 5.65625 -22.8125 C 8.65625 -25.394531 12.363281 -26.6875 16.78125 -26.6875 C 21.125 -26.6875 24.785156 -25.390625 27.765625 -22.796875 C 30.753906 -20.203125 32.25 -16.914062 32.25 -12.9375 C 32.25 -8.957031 30.789062 -5.675781 27.875 -3.09375 C 24.957031 -0.519531 21.257812 0.765625 16.78125 0.765625 C 12.132812 0.765625 8.367188 -0.515625 5.484375 -3.078125 Z M 12.40625 -17.34375 C 11.25 -16.195312 10.671875 -14.726562 10.671875 -12.9375 C 10.671875 -11.15625 11.222656 -9.695312 12.328125 -8.5625 C 13.441406 -7.4375 14.910156 -6.875 16.734375 -6.875 C 18.484375 -6.875 19.921875 -7.445312 21.046875 -8.59375 C 22.179688 -9.738281 22.75 -11.1875 22.75 -12.9375 C 22.75 -14.726562 22.164062 -16.195312 21 -17.34375 C 19.84375 -18.488281 18.421875 -19.0625 16.734375 -19.0625 C 15.015625 -19.0625 13.570312 -18.488281 12.40625 -17.34375 Z M 12.40625 -17.34375 "/></g></g></g><g fill="#000000" fill-opacity="1"><g transform="translate(140.144249, 43.69479)"><g><path d="M 16.828125 -19.359375 C 15.148438 -19.359375 13.703125 -18.734375 12.484375 -17.484375 C 11.273438 -16.242188 10.671875 -14.742188 10.671875 -12.984375 C 10.671875 -11.203125 11.273438 -9.6875 12.484375 -8.4375 C 13.703125 -7.195312 15.148438 -6.578125 16.828125 -6.578125 C 17.640625 -6.578125 18.40625 -6.675781 19.125 -6.875 C 19.851562 -7.070312 20.382812 -7.273438 20.71875 -7.484375 L 21.171875 -7.78125 L 24.21875 -1.5625 C 23.976562 -1.394531 23.644531 -1.1875 23.21875 -0.9375 C 22.800781 -0.6875 21.84375 -0.34375 20.34375 0.09375 C 18.84375 0.539062 17.234375 0.765625 15.515625 0.765625 C 11.710938 0.765625 8.367188 -0.570312 5.484375 -3.25 C 2.597656 -5.9375 1.15625 -9.148438 1.15625 -12.890625 C 1.15625 -16.660156 2.597656 -19.898438 5.484375 -22.609375 C 8.367188 -25.328125 11.710938 -26.6875 15.515625 -26.6875 C 17.234375 -26.6875 18.816406 -26.484375 20.265625 -26.078125 C 21.710938 -25.671875 22.742188 -25.269531 23.359375 -24.875 L 24.21875 -24.265625 L 21.171875 -18.140625 C 20.066406 -18.953125 18.617188 -19.359375 16.828125 -19.359375 Z M 16.828125 -19.359375 "/></g></g></g></svg>