<?xml version="1.0" standalone="no"?>
<!DOCTYPE svg PUBLIC "-//W3C//DTD SVG 20010904//EN"
 "http://www.w3.org/TR/2001/REC-SVG-20010904/DTD/svg10.dtd">
<svg version="1.0" xmlns="http://www.w3.org/2000/svg"
 width="500.000000pt" height="500.000000pt" viewBox="0 0 500.000000 500.000000"
 preserveAspectRatio="xMidYMid meet">
<metadata>
Created by potrace 1.14, written by Peter Selinger 2001-2017
</metadata>
<g transform="translate(0.000000,500.000000) scale(0.100000,-0.100000)"
fill="#000000" stroke="none">
<path d="M827 4984 c-230 -42 -435 -158 -583 -331 -106 -126 -176 -260 -216
-420 l-23 -88 0 -1650 0 -1650 27 -96 c49 -177 134 -324 263 -454 128 -129
273 -214 452 -263 l98 -27 1655 0 1655 0 98 27 c179 49 324 134 452 263 128
128 215 278 264 455 l26 95 0 1655 0 1655 -26 95 c-49 177 -136 327 -264 455
-128 129 -273 214 -452 263 l-98 27 -1625 2 c-1370 1 -1637 -1 -1703 -13z
m2322 -1330 c-254 -450 -474 -843 -491 -871 l-29 -53 496 0 c273 0 495 -3 493
-8 -1 -4 -361 -360 -798 -791 -437 -432 -941 -929 -1118 -1105 -178 -177 -317
-307 -309 -291 9 17 232 406 496 865 l480 835 -476 5 -476 5 998 1020 c550
561 1042 1064 1094 1117 52 54 96 96 98 94 2 -1 -204 -371 -458 -822z"/>
</g>
</svg>
